<?xml version="1.0" encoding="UTF-8"?>
<svg id="_레이어_2" data-name="레이어 2" xmlns="http://www.w3.org/2000/svg" viewBox="0 0 384 384">
  <defs>
    <style>
      .cls-1 {
        fill: #e7e7fd;
      }

      .cls-2 {
        fill: #4ee58c;
      }

      .cls-3 {
        fill: #fac42d;
      }

      .cls-4 {
        fill: #6dbbf2;
      }

      .cls-5 {
        fill: #419ef8;
      }

      .cls-6 {
        fill: #e6e6fc;
      }

      .cls-7 {
        fill: #f5525a;
      }

      .cls-8 {
        fill: #030304;
      }

      .cls-9 {
        fill: #4ce089;
      }

      .cls-10 {
        fill: #030403;
      }

      .cls-11 {
        fill: #f5c12d;
      }

      .cls-12 {
        fill: #0ec158;
      }

      .cls-13 {
        fill: #4f5d98;
      }

      .cls-14 {
        fill: #f29100;
      }

      .cls-15 {
        fill: #e7e7fc;
      }

      .cls-16 {
        fill: #42a1fd;
      }

      .cls-17 {
        fill: #3b4770;
      }

      .cls-18 {
        fill: #e5e5fb;
      }
    </style>
  </defs>
  <g id="_레이어_1-2" data-name="레이어 1">
    <g>
      <path class="cls-8" d="M259.5,292.68v34.43h23.62c7.39,0,16.8,7.05,20.47,13.25,3.05,5.13,8.09,18.72-1.69,18.97l-221.24-.08c-8.1-1.27-2.74-14.92.01-19.35,3.67-5.89,13.1-12.79,20.19-12.79h23.62v-34.43H7.12c-1.69,0-3.93-3.75-3.41-5.58l.43-249.65,1.88-1.87,137.61-.39c2.06-.39,3.48-5.11,5.67-7.07,5.86-5.23,14.44-5.31,20.46-.31,2.46,2.05,4.17,7.01,6.11,7.37l202.11.39c1.59,1.05,2.52,2.43,2.31,4.43v247.1c.51,1.83-1.73,5.58-3.42,5.58h-117.38ZM166.1,39.48c0-3.5-2.84-6.34-6.35-6.34s-6.35,2.84-6.35,6.34,2.84,6.34,6.35,6.34,6.35-2.84,6.35-6.34ZM143.25,44.16H12.75v209.59h358.5V44.16h-197.25c-1.26,6.6-8.07,10.43-14.34,10.91l-23.77,81.01,3.23,1.6,118.85-66.98c2.36-1.4,1.2-4.21,1.72-6.52,4.71-21.19,34.08-15.7,30.38,5.62-1.61,9.26-12.4,13.63-20.8,10.64-2.24-.8-3.8-3.06-6.01-2.3l-119.88,68.25c1.13,2.53-.35,6.1,1.83,7.71l92.34,40.33c4.35,2.6,5.36-.88,8.54-2.37,12.12-5.68,25.18,5.67,21.47,18.44s-22.83,14.75-28.45,2.22l-96.87,10.29c-5.62,20.11-33.58,14.77-30.52-5.89l-42.2-21.62c-19.1,15.18-38.53-13.79-17.13-24.97l-4.36-48.19c-19.86-5.86-12.26-34.96,8.09-29.78,2.6.66,4.79,3.32,7.41,1.93l79.72-50.35ZM150.75,51.65c-.89-.89-6.24,2.72-7.43,3.43-25.53,15.12-49.93,32.31-75.46,47.44-1.87,1.98-1.25,5.72-.73,8.26l46.35,26.86c3.6-3.5,8.34-4.52,13.13-5.31l24.15-80.69ZM281.47,66.16c0-3.53-2.87-6.4-6.41-6.4s-6.41,2.86-6.41,6.4,2.87,6.4,6.41,6.4,6.41-2.86,6.41-6.4ZM58.08,107.36c0-3.52-2.86-6.37-6.38-6.37s-6.38,2.85-6.38,6.37,2.86,6.37,6.38,6.37,6.38-2.85,6.38-6.37ZM107.88,154.83l-.62-10-44.07-25.69-5.28,2.27,4.33,48.13,7.74,4,37.89-18.72ZM135,150.69c0-4.96-4.03-8.98-9-8.98s-9,4.02-9,8.98,4.03,8.98,9,8.98,9-4.02,9-8.98ZM234.74,202.86l-92.81-40.32c-2.33-.46-8.78,4.95-11.32,6.37l.6,36.43c4.29,1.99,7.54,4.3,9.53,8.78l89.03-9.87,4.96-1.4ZM121.41,167.75c-4.39.05-7.05-5.39-11.17-4.25l-36,18c-1.03,1.13-1.09,3.74-.61,5.13.62,1.77,28.83,16.07,32.86,18.1,6.75,3.4,8.83,5.99,15.8.61l-.87-37.59ZM64.85,184.44c0-3.5-2.84-6.33-6.35-6.33s-6.35,2.84-6.35,6.33,2.84,6.33,6.35,6.33,6.35-2.84,6.35-6.33ZM259.15,206.03c0-3.53-2.86-6.39-6.4-6.39s-6.4,2.86-6.4,6.39,2.86,6.39,6.4,6.39,6.4-2.86,6.4-6.39ZM133.1,220.36c0-3.5-2.84-6.33-6.35-6.33s-6.35,2.84-6.35,6.33,2.84,6.33,6.35,6.33,6.35-2.84,6.35-6.33ZM371.25,262.74H12.75v20.96h358.5v-20.96ZM133.5,292.68v34.43h117v-34.43h-117ZM297.75,350.32c-1.42-9.3-10.28-14.1-19.09-14.26l-174.77.05c-8.42.77-16.22,5.32-17.64,14.21h211.5Z"/>
      <path class="cls-1" d="M143.25,44.16l-79.72,50.35c-2.62,1.39-4.81-1.26-7.41-1.93-20.35-5.18-27.95,23.92-8.09,29.78l4.36,48.19c-21.4,11.18-1.97,40.15,17.13,24.97l42.2,21.62c-3.06,20.66,24.9,26.01,30.52,5.89l96.87-10.29c5.62,12.53,24.63,10.93,28.45-2.22s-9.35-24.12-21.47-18.44c-3.17,1.49-4.18,4.96-8.54,2.37l-92.34-40.33c-2.18-1.61-.7-5.18-1.83-7.71l119.88-68.25c2.22-.76,3.78,1.5,6.01,2.3,8.4,2.99,19.19-1.38,20.8-10.64,3.7-21.32-25.67-26.8-30.38-5.62-.51,2.31.65,5.12-1.72,6.52l-118.85,66.98-3.23-1.6,23.77-81.01c6.27-.49,13.07-4.31,14.34-10.91h197.25v209.59H12.75V44.16h130.5ZM343.5,151.2v-78.97c0-2.31-3.72-3.23-5.59-3.4-4.91-.45-21.97-.77-26.27.05-.98.19-3.39,2.11-3.39,2.6v19.84h-23.62c-.19,0-2.62,2.43-2.62,2.62v21.33h-22.12c-1.08,0-4.12,2.2-4.12,3.37v32.56c-5.96.2-15.19-2.07-13.37,6.99l3.3,1.94,109.06-.34c7.41-8.69-4.65-9.37-11.23-8.59Z"/>
      <rect class="cls-16" x="12.75" y="262.74" width="358.5" height="20.96"/>
      <rect class="cls-13" x="133.5" y="292.68" width="117" height="34.43"/>
      <path class="cls-15" d="M150.75,51.65l-24.15,80.69c-4.78.79-9.53,1.8-13.13,5.31l-46.35-26.86c-.52-2.54-1.14-6.29.73-8.26,25.54-15.14,49.93-32.33,75.46-47.44,1.19-.7,6.55-4.32,7.43-3.43Z"/>
      <path class="cls-6" d="M234.74,202.86l-4.96,1.4-89.03,9.87c-1.98-4.48-5.24-6.78-9.53-8.78l-.6-36.43c2.53-1.42,8.98-6.83,11.32-6.37l92.81,40.32Z"/>
      <path class="cls-17" d="M297.75,350.32H86.25c1.41-8.89,9.21-13.44,17.64-14.21l174.77-.05c8.81.16,17.67,4.95,19.09,14.26Z"/>
      <polygon class="cls-6" points="107.88 154.83 69.99 173.55 62.24 169.55 57.91 121.41 63.19 119.15 107.26 144.83 107.88 154.83"/>
      <path class="cls-18" d="M121.41,167.75l.87,37.59c-6.96,5.39-9.04,2.8-15.8-.61-4.03-2.03-32.24-16.33-32.86-18.1-.48-1.39-.42-4,.61-5.13l36-18c4.12-1.14,6.79,4.3,11.17,4.25Z"/>
      <ellipse class="cls-7" cx="126" cy="150.69" rx="9" ry="8.98"/>
      <ellipse class="cls-9" cx="275.06" cy="66.16" rx="6.41" ry="6.4"/>
      <ellipse class="cls-11" cx="252.75" cy="206.03" rx="6.4" ry="6.39"/>
      <ellipse class="cls-14" cx="51.7" cy="107.36" rx="6.38" ry="6.37"/>
      <ellipse class="cls-5" cx="159.75" cy="39.48" rx="6.35" ry="6.34"/>
      <ellipse class="cls-4" cx="58.5" cy="184.44" rx="6.35" ry="6.33"/>
      <ellipse class="cls-12" cx="126.75" cy="220.36" rx="6.35" ry="6.33"/>
      <path class="cls-10" d="M343.5,151.2c6.58-.78,18.64-.1,11.23,8.59l-109.06.34-3.3-1.94c-1.82-9.05,7.41-6.79,13.37-6.99v-32.56c0-1.17,3.05-3.37,4.12-3.37h22.12v-21.33c0-.19,2.44-2.62,2.62-2.62h23.62v-19.84c0-.49,2.41-2.42,3.39-2.6,4.3-.82,21.36-.5,26.27-.05,1.87.17,5.59,1.1,5.59,3.4v78.97ZM334.5,77.85h-17.25v73.36h17.25v-73.36ZM308.25,100.3h-17.25v50.9h17.25v-50.9ZM282,151.2v-25.82l-1.12-1.12h-16.12v26.95h17.25Z"/>
      <rect class="cls-2" x="317.25" y="77.85" width="17.25" height="73.36"/>
      <rect class="cls-3" x="291" y="100.3" width="17.25" height="50.9"/>
      <polygon class="cls-5" points="282 151.2 264.75 151.2 264.75 124.26 280.88 124.26 282 125.38 282 151.2"/>
    </g>
  </g>
</svg>